<svg xmlns="http://www.w3.org/2000/svg" xmlns:xlink="http://www.w3.org/1999/xlink"><symbol viewBox="0 0 24 30" fill="none" id="csv"><path d="M1.5 2.5a2 2 0 0 1 2-2h13.283a1 1 0 0 1 .71.296l4.665 4.71a1 1 0 0 1 .29.701l.048 21.289a2 2 0 0 1-2 2.004H3.5a2 2 0 0 1-2-2z" fill="#fff" stroke="#BBB"/><path d="M16.5.5V5A1.5 1.5 0 0 0 18 6.5h4.5" stroke="#BBB"/><rect x="5" y="19" width="6" height="2" rx="1" fill="#B0D9AD"/><rect x="5" y="15" width="6" height="2" rx="1" fill="#B0D9AD"/><rect x="13" y="15" width="6" height="2" rx="1" fill="#B0D9AD"/><rect x="13" y="19" width="6" height="2" rx="1" fill="#B0D9AD"/><rect x="13" y="11" width="6" height="2" rx="1" fill="#3AA133"/><rect x="5" y="11" width="6" height="2" rx="1" fill="#3AA133"/></symbol><symbol viewBox="0 0 24 30" fill="none" id="djvu"><path d="M1.5 2.5a2 2 0 0 1 2-2h13.283a1 1 0 0 1 .71.296l4.665 4.71a1 1 0 0 1 .29.701l.048 21.289a2 2 0 0 1-2 2.004H3.5a2 2 0 0 1-2-2z" fill="#fff" stroke="#BBB"/><path d="M16.5.5V5A1.5 1.5 0 0 0 18 6.5h4.5" stroke="#BBB"/><path fill-rule="evenodd" clip-rule="evenodd" d="M14 11a1 1 0 1 0 0 2h4a1 1 0 1 0 0-2zm-3 5a1 1 0 0 1 1-1h6a1 1 0 1 1 0 2h-6a1 1 0 0 1-1-1m-6 4a1 1 0 0 1 1-1h12a1 1 0 1 1 0 2H6a1 1 0 0 1-1-1m1-9a1 1 0 1 0 0 2h1v3a1 1 0 1 0 2 0v-3h1a1 1 0 1 0 0-2z" fill="#C59800"/></symbol><symbol viewBox="0 0 24 30" fill="none" id="doc"><path d="M1.5 2.5a2 2 0 0 1 2-2h13.283a1 1 0 0 1 .71.296l4.665 4.71a1 1 0 0 1 .29.701l.048 21.289a2 2 0 0 1-2 2.004H3.5a2 2 0 0 1-2-2z" fill="#fff" stroke="#BBB"/><path d="M16.5.5V5A1.5 1.5 0 0 0 18 6.5h4.5" stroke="#BBB"/><rect x="5" y="19" width="9" height="2" rx="1" fill="#A9CBDD"/><rect x="5" y="15" width="14" height="2" rx="1" fill="#A9CBDD"/><rect x="5" y="11" width="14" height="2" rx="1" fill="#287CA9"/></symbol><symbol viewBox="0 0 24 30" fill="none" id="docm"><path d="M1.5 2.5a2 2 0 0 1 2-2h13.283a1 1 0 0 1 .71.296l4.665 4.71a1 1 0 0 1 .29.701l.048 21.289a2 2 0 0 1-2 2.004H3.5a2 2 0 0 1-2-2z" fill="#fff" stroke="#BBB"/><path d="M16.5.5V5A1.5 1.5 0 0 0 18 6.5h4.5" stroke="#BBB"/><rect x="5" y="19" width="5" height="2" rx="1" fill="#A9CBDD"/><rect x="5" y="15" width="5" height="2" rx="1" fill="#A9CBDD"/><rect x="5" y="11" width="14" height="2" rx="1" fill="#A9CBDD"/><rect x="12" y="15" width="12" height="12" rx="2" fill="#287CA9"/><path d="m22.93 17.43-1.79 7.14h-1.98l-.83-3.45a5 5 0 0 1-.07-.32q-.04-.219-.1-.48-.05-.27-.09-.51-.039-.25-.06-.4-.02.15-.07.4-.039.24-.09.51-.05.261-.1.48-.04.21-.07.32l-.84 3.45h-1.97l-1.8-7.14h1.66l.85 3.75q.04.15.09.4.05.24.1.52.051.27.09.53.05.25.07.43.03-.24.08-.55l.12-.63q.06-.32.12-.6t.11-.45l.85-3.4h1.59l.85 3.4q.03.171.09.45.07.28.13.61.07.32.12.63t.08.54q.03-.249.09-.6l.14-.71q.07-.36.12-.56l.85-3.76z" fill="#fff"/></symbol><symbol viewBox="0 0 24 30" fill="none" id="docx"><path d="M1.5 2.5a2 2 0 0 1 2-2h13.283a1 1 0 0 1 .71.296l4.665 4.71a1 1 0 0 1 .29.701l.048 21.289a2 2 0 0 1-2 2.004H3.5a2 2 0 0 1-2-2z" fill="#fff" stroke="#BBB"/><path d="M16.5.5V5A1.5 1.5 0 0 0 18 6.5h4.5" stroke="#BBB"/><rect x="5" y="19" width="5" height="2" rx="1" fill="#A9CBDD"/><rect x="5" y="15" width="5" height="2" rx="1" fill="#A9CBDD"/><rect x="5" y="11" width="14" height="2" rx="1" fill="#A9CBDD"/><rect x="12" y="15" width="12" height="12" rx="2" fill="#287CA9"/><path d="m22.93 17.43-1.79 7.14h-1.98l-.83-3.45a5 5 0 0 1-.07-.32q-.04-.219-.1-.48-.05-.27-.09-.51-.039-.25-.06-.4-.02.15-.07.4-.039.24-.09.51-.05.261-.1.48-.04.21-.07.32l-.84 3.45h-1.97l-1.8-7.14h1.66l.85 3.75q.04.15.09.4.05.24.1.52.051.27.09.53.05.25.07.43.03-.24.08-.55l.12-.63q.06-.32.12-.6t.11-.45l.85-3.4h1.59l.85 3.4q.03.171.09.45.07.28.13.61.07.32.12.63t.08.54q.03-.249.09-.6l.14-.71q.07-.36.12-.56l.85-3.76z" fill="#fff"/></symbol><symbol viewBox="0 0 24 30" fill="none" id="docxf"><path d="M1.5 2.5a2 2 0 0 1 2-2h13.283a1 1 0 0 1 .71.296l4.665 4.71a1 1 0 0 1 .29.701l.048 21.289a2 2 0 0 1-2 2.004H3.5a2 2 0 0 1-2-2z" fill="#fff" stroke="#BBB"/><path d="M16.5.5V5A1.5 1.5 0 0 0 18 6.5h4.5" stroke="#BBB"/><path d="M5 12a1 1 0 0 1 1-1h8a1 1 0 1 1 0 2H6a1 1 0 0 1-1-1" fill="#A9DDDA"/><path d="M7 17h10v2H7zm-1-2a1 1 0 0 0-1 1v4a1 1 0 0 0 1 1h12a1 1 0 0 0 1-1v-4a1 1 0 0 0-1-1z" fill="#28ABA3"/></symbol><symbol viewBox="0 0 24 30" fill="none" id="dotm"><path d="M1.5 2.5a2 2 0 0 1 2-2h13.283a1 1 0 0 1 .71.296l4.665 4.71a1 1 0 0 1 .29.701l.048 21.289a2 2 0 0 1-2 2.004H3.5a2 2 0 0 1-2-2z" fill="#fff" stroke="#BBB"/><path d="M16.5.5V5A1.5 1.5 0 0 0 18 6.5h4.5" stroke="#BBB"/><rect x="5" y="19" width="5" height="2" rx="1" fill="#A9CBDD"/><rect x="5" y="15" width="5" height="2" rx="1" fill="#A9CBDD"/><rect x="5" y="11" width="14" height="2" rx="1" fill="#A9CBDD"/><rect x="12" y="15" width="12" height="12" rx="2" fill="#287CA9"/><path d="m22.93 17.43-1.79 7.14h-1.98l-.83-3.45a5 5 0 0 1-.07-.32q-.04-.219-.1-.48-.05-.27-.09-.51-.039-.25-.06-.4-.02.15-.07.4-.039.24-.09.51-.05.261-.1.48-.04.21-.07.32l-.84 3.45h-1.97l-1.8-7.14h1.66l.85 3.75q.04.15.09.4.05.24.1.52.051.27.09.53.05.25.07.43.03-.24.08-.55l.12-.63q.06-.32.12-.6t.11-.45l.85-3.4h1.59l.85 3.4q.03.171.09.45.07.28.13.61.07.32.12.63t.08.54q.03-.249.09-.6l.14-.71q.07-.36.12-.56l.85-3.76z" fill="#fff"/></symbol><symbol viewBox="0 0 24 30" fill="none" id="dotx"><path d="M1.5 2.5a2 2 0 0 1 2-2h13.283a1 1 0 0 1 .71.296l4.665 4.71a1 1 0 0 1 .29.701l.048 21.289a2 2 0 0 1-2 2.004H3.5a2 2 0 0 1-2-2z" fill="#fff" stroke="#BBB"/><path d="M16.5.5V5A1.5 1.5 0 0 0 18 6.5h4.5" stroke="#BBB"/><rect x="5" y="19" width="5" height="2" rx="1" fill="#A9CBDD"/><rect x="5" y="15" width="5" height="2" rx="1" fill="#A9CBDD"/><rect x="5" y="11" width="14" height="2" rx="1" fill="#A9CBDD"/><rect x="12" y="15" width="12" height="12" rx="2" fill="#287CA9"/><path d="m22.93 17.43-1.79 7.14h-1.98l-.83-3.45a5 5 0 0 1-.07-.32q-.04-.219-.1-.48-.05-.27-.09-.51-.039-.25-.06-.4-.02.15-.07.4-.039.24-.09.51-.05.261-.1.48-.04.21-.07.32l-.84 3.45h-1.97l-1.8-7.14h1.66l.85 3.75q.04.15.09.4.05.24.1.52.051.27.09.53.05.25.07.43.03-.24.08-.55l.12-.63q.06-.32.12-.6t.11-.45l.85-3.4h1.59l.85 3.4q.03.171.09.45.07.28.13.61.07.32.12.63t.08.54q.03-.249.09-.6l.14-.71q.07-.36.12-.56l.85-3.76z" fill="#fff"/></symbol><symbol viewBox="0 0 24 30" fill="none" id="epub"><path d="M1.5 2.5a2 2 0 0 1 2-2h13.283a1 1 0 0 1 .71.296l4.665 4.71a1 1 0 0 1 .29.701l.048 21.289a2 2 0 0 1-2 2.004H3.5a2 2 0 0 1-2-2z" fill="#fff" stroke="#BBB"/><path d="M16.5.5V5A1.5 1.5 0 0 0 18 6.5h4.5" stroke="#BBB"/><path fill-rule="evenodd" clip-rule="evenodd" d="M14 11a1 1 0 1 0 0 2h4a1 1 0 1 0 0-2zm-3 5a1 1 0 0 1 1-1h6a1 1 0 1 1 0 2h-6a1 1 0 0 1-1-1m-6 4a1 1 0 0 1 1-1h12a1 1 0 1 1 0 2H6a1 1 0 0 1-1-1m1-9a1 1 0 1 0 0 2h1v3a1 1 0 1 0 2 0v-3h1a1 1 0 1 0 0-2z" fill="#C59800"/></symbol><symbol viewBox="0 0 24 30" fill="none" id="fb2"><path d="M1.5 2.5a2 2 0 0 1 2-2h13.283a1 1 0 0 1 .71.296l4.665 4.71a1 1 0 0 1 .29.701l.048 21.289a2 2 0 0 1-2 2.004H3.5a2 2 0 0 1-2-2z" fill="#fff" stroke="#BBB"/><path d="M16.5.5V5A1.5 1.5 0 0 0 18 6.5h4.5" stroke="#BBB"/><path fill-rule="evenodd" clip-rule="evenodd" d="M14 11a1 1 0 1 0 0 2h4a1 1 0 1 0 0-2zm-3 5a1 1 0 0 1 1-1h6a1 1 0 1 1 0 2h-6a1 1 0 0 1-1-1m-6 4a1 1 0 0 1 1-1h12a1 1 0 1 1 0 2H6a1 1 0 0 1-1-1m1-9a1 1 0 1 0 0 2h1v3a1 1 0 1 0 2 0v-3h1a1 1 0 1 0 0-2z" fill="#C59800"/></symbol><symbol viewBox="0 0 24 30" fill="none" id="fodp"><path d="M1.5 2.5a2 2 0 0 1 2-2h13.283a1 1 0 0 1 .71.296l4.665 4.71a1 1 0 0 1 .29.701l.048 21.289a2 2 0 0 1-2 2.004H3.5a2 2 0 0 1-2-2z" fill="#fff" stroke="#BBB"/><path d="M16.5.5V5A1.5 1.5 0 0 0 18 6.5h4.5" stroke="#BBB"/><path d="M6.5 15h5a.5.5 0 0 0 .5-.5v-5a.47.47 0 0 1 .5-.48 6 6 0 1 1-6.48 6.48.47.47 0 0 1 .48-.5" fill="#FAC299"/><path d="M5.5 13c-.276 0-.503-.225-.475-.5a5 5 0 0 1 4.476-4.475c.275-.028.499.199.499.475v4a.5.5 0 0 1-.5.5z" fill="#F36700"/></symbol><symbol viewBox="0 0 24 30" fill="none" id="fods"><path d="M1.5 2.5a2 2 0 0 1 2-2h13.283a1 1 0 0 1 .71.296l4.665 4.71a1 1 0 0 1 .29.701l.048 21.289a2 2 0 0 1-2 2.004H3.5a2 2 0 0 1-2-2z" fill="#fff" stroke="#BBB"/><path d="M16.5.5V5A1.5 1.5 0 0 0 18 6.5h4.5" stroke="#BBB"/><rect x="5" y="19" width="6" height="2" rx="1" fill="#B0D9AD"/><rect x="5" y="15" width="6" height="2" rx="1" fill="#B0D9AD"/><rect x="13" y="15" width="6" height="2" rx="1" fill="#B0D9AD"/><rect x="13" y="19" width="6" height="2" rx="1" fill="#B0D9AD"/><rect x="13" y="11" width="6" height="2" rx="1" fill="#3AA133"/><rect x="5" y="11" width="6" height="2" rx="1" fill="#3AA133"/></symbol><symbol viewBox="0 0 24 30" fill="none" id="fodt"><path d="M1.5 2.5a2 2 0 0 1 2-2h13.283a1 1 0 0 1 .71.296l4.665 4.71a1 1 0 0 1 .29.701l.048 21.289a2 2 0 0 1-2 2.004H3.5a2 2 0 0 1-2-2z" fill="#fff" stroke="#BBB"/><path d="M16.5.5V5A1.5 1.5 0 0 0 18 6.5h4.5" stroke="#BBB"/><rect x="5" y="19" width="9" height="2" rx="1" fill="#A9CBDD"/><rect x="5" y="15" width="14" height="2" rx="1" fill="#A9CBDD"/><rect x="5" y="11" width="14" height="2" rx="1" fill="#287CA9"/></symbol><symbol viewBox="0 0 24 30" fill="none" id="html"><path d="M1.5 2.5a2 2 0 0 1 2-2h13.283a1 1 0 0 1 .71.296l4.665 4.71a1 1 0 0 1 .29.701l.048 21.289a2 2 0 0 1-2 2.004H3.5a2 2 0 0 1-2-2z" fill="#fff" stroke="#BBB"/><path d="M14.293 18.293a1 1 0 0 0 1.414 1.414l3-3a1 1 0 0 0 0-1.414l-3-3a1 1 0 0 0-1.414 1.414L16.586 16zm-4.586-4.586a1 1 0 0 0-1.414-1.414l-3 3a1 1 0 0 0 0 1.414l3 3a1 1 0 0 0 1.414-1.414L7.414 16z" fill="#A1A1A1"/><path d="M16.5.5V5A1.5 1.5 0 0 0 18 6.5h4.5" stroke="#BBB"/></symbol><symbol viewBox="0 0 24 30" fill="none" id="hwp"><path d="M1 2a2 2 0 0 1 2-2h13.586a1 1 0 0 1 .707.293l5.414 5.414a1 1 0 0 1 .293.707V28a2 2 0 0 1-2 2H3a2 2 0 0 1-2-2z" fill="#fff"/><path d="M1 2a2 2 0 0 1 2-2h13.586a1 1 0 0 1 .707.293l5.414 5.414a1 1 0 0 1 .293.707V28a2 2 0 0 1-2 2H3a2 2 0 0 1-2-2zm21 5h-3.12c-.403 0-.735 0-1.006-.022-.281-.023-.54-.072-.782-.196a2 2 0 0 1-.874-.874c-.124-.243-.173-.501-.196-.782C16 4.856 16 4.523 16 4.12V1H3a1 1 0 0 0-1 1v26a1 1 0 0 0 1 1h18a1 1 0 0 0 1-1zm-.414-1L17 1.414V4.1c0 .428 0 .72.019.944.018.22.05.332.09.41a1 1 0 0 0 .437.437c.078.04.19.072.41.09.225.019.516.019.944.019z" fill="#BBB"/><path d="M6 15a1 1 0 1 0 0 2h12a1 1 0 1 0 0-2zm0 4a1 1 0 1 0 0 2h7a1 1 0 1 0 0-2z" fill="#A9CBDD"/><path d="M5 12a1 1 0 0 1 1-1h12a1 1 0 1 1 0 2H6a1 1 0 0 1-1-1" fill="#287CA9"/></symbol><symbol viewBox="0 0 24 30" fill="none" id="hwpx"><path d="M1 2a2 2 0 0 1 2-2h13.586a1 1 0 0 1 .707.293l5.414 5.414a1 1 0 0 1 .293.707V28a2 2 0 0 1-2 2H3a2 2 0 0 1-2-2z" fill="#fff"/><path d="M1 2a2 2 0 0 1 2-2h13.586a1 1 0 0 1 .707.293l5.414 5.414a1 1 0 0 1 .293.707V28a2 2 0 0 1-2 2H3a2 2 0 0 1-2-2zm21 5h-3.12c-.403 0-.735 0-1.006-.022-.281-.023-.54-.072-.782-.196a2 2 0 0 1-.874-.874c-.124-.243-.173-.501-.196-.782C16 4.856 16 4.523 16 4.12V1H3a1 1 0 0 0-1 1v26a1 1 0 0 0 1 1h18a1 1 0 0 0 1-1zm-.414-1L17 1.414V4.1c0 .428 0 .72.019.944.018.22.05.332.09.41a1 1 0 0 0 .437.437c.078.04.19.072.41.09.225.019.516.019.944.019z" fill="#BBB"/><path d="M6 15a1 1 0 1 0 0 2h12a1 1 0 1 0 0-2zm0 4a1 1 0 1 0 0 2h7a1 1 0 1 0 0-2z" fill="#A9CBDD"/><path d="M5 12a1 1 0 0 1 1-1h12a1 1 0 1 1 0 2H6a1 1 0 0 1-1-1" fill="#287CA9"/></symbol><symbol viewBox="0 0 80 100" fill="none" id="jpg"><g clip-path="url(#aqclip0_2964_22040)"><path d="M75 19V92.6667C75 93.2855 74.7542 93.879 74.3166 94.3166C73.879 94.7542 73.2855 95 72.6667 95H7.33333C6.71449 95 6.121 94.7542 5.68342 94.3166C5.24583 93.879 5 93.2855 5 92.6667V7.33333C5 6.71449 5.24583 6.121 5.68342 5.68342C6.121 5.24583 6.71449 5 7.33333 5H61L75 19Z" fill="#7371D8"/><path opacity="0.2" d="M75 19H63.3333C62.7145 19 62.121 18.7542 61.6834 18.3166C61.2458 17.879 61 17.2855 61 16.6667V5L75 19Z" fill="black"/><path d="M30.0801 89.5195C29.8457 89.5195 29.6406 89.5059 29.4648 89.4785C29.2852 89.4551 29.1328 89.4258 29.0078 89.3906V87.8789C29.1328 87.9062 29.2676 87.9316 29.4121 87.9551C29.5527 87.9824 29.7031 87.9961 29.8633 87.9961C30.0742 87.9961 30.2637 87.9551 30.4316 87.873C30.5996 87.7949 30.7324 87.6445 30.8301 87.4219C30.9277 87.1992 30.9766 86.8789 30.9766 86.4609V78.4336H32.793V86.4492C32.793 87.1836 32.6777 87.7754 32.4473 88.2246C32.2207 88.6777 31.9023 89.0059 31.4922 89.209C31.0859 89.416 30.6152 89.5195 30.0801 89.5195ZM37.6855 78.4336C38.791 78.4336 39.5977 78.6719 40.1055 79.1484C40.6133 79.6211 40.8672 80.2734 40.8672 81.1055C40.8672 81.4805 40.8105 81.8398 40.6973 82.1836C40.584 82.5234 40.3984 82.8262 40.1406 83.0918C39.8867 83.3574 39.5469 83.5684 39.1211 83.7246C38.6953 83.877 38.1699 83.9531 37.5449 83.9531H36.7656V87H34.9492V78.4336H37.6855ZM37.5918 79.9219H36.7656V82.4648H37.3633C37.7031 82.4648 37.998 82.4199 38.248 82.3301C38.498 82.2402 38.6914 82.0996 38.8281 81.9082C38.9648 81.7168 39.0332 81.4707 39.0332 81.1699C39.0332 80.748 38.916 80.4355 38.6816 80.2324C38.4473 80.0254 38.084 79.9219 37.5918 79.9219ZM45.7363 82.1895H49.1348V86.6309C48.6855 86.7793 48.2188 86.8984 47.7344 86.9883C47.25 87.0742 46.7012 87.1172 46.0879 87.1172C45.2363 87.1172 44.5137 86.9492 43.9199 86.6133C43.3262 86.2773 42.875 85.7812 42.5664 85.125C42.2578 84.4688 42.1035 83.6621 42.1035 82.7051C42.1035 81.8066 42.2754 81.0293 42.6191 80.373C42.9668 79.7168 43.4727 79.209 44.1367 78.8496C44.8047 78.4902 45.6191 78.3105 46.5801 78.3105C47.0332 78.3105 47.4805 78.3594 47.9219 78.457C48.3633 78.5547 48.7637 78.6816 49.123 78.8379L48.5195 80.291C48.2578 80.1582 47.959 80.0469 47.623 79.957C47.2871 79.8672 46.9355 79.8223 46.5684 79.8223C46.041 79.8223 45.582 79.9434 45.1914 80.1855C44.8047 80.4277 44.5039 80.7676 44.2891 81.2051C44.0781 81.6387 43.9727 82.1504 43.9727 82.7402C43.9727 83.2988 44.0488 83.7949 44.2012 84.2285C44.3535 84.6582 44.5938 84.9961 44.9219 85.2422C45.25 85.4844 45.6777 85.6055 46.2051 85.6055C46.4629 85.6055 46.6797 85.5938 46.8555 85.5703C47.0352 85.543 47.2031 85.5156 47.3594 85.4883V83.7012H45.7363V82.1895Z" fill="white"/><mask id="aqpath-4-inside-1_2964_22040" fill="white"><path fill-rule="evenodd" clip-rule="evenodd" d="M25.3677 44.4118C27.6906 44.4118 29.5736 42.5287 29.5736 40.2059C29.5736 37.883 27.6906 36 25.3677 36C23.0449 36 21.1619 37.883 21.1619 40.2059C21.1619 42.5287 23.0449 44.4118 25.3677 44.4118ZM44.103 39.0588L58.6325 62H21.1619L31.4854 45.1765L35.7879 52.188L44.103 39.0588Z"/></mask><path fill-rule="evenodd" clip-rule="evenodd" d="M25.3677 44.4118C27.6906 44.4118 29.5736 42.5287 29.5736 40.2059C29.5736 37.883 27.6906 36 25.3677 36C23.0449 36 21.1619 37.883 21.1619 40.2059C21.1619 42.5287 23.0449 44.4118 25.3677 44.4118ZM44.103 39.0588L58.6325 62H21.1619L31.4854 45.1765L35.7879 52.188L44.103 39.0588Z" fill="white"/><path d="M58.6325 62V64H62.2665L60.3221 60.9299L58.6325 62ZM44.103 39.0588L45.7927 37.9887L44.103 35.3208L42.4134 37.9887L44.103 39.0588ZM21.1619 62L19.4572 60.9539L17.5881 64H21.1619V62ZM31.4854 45.1765L33.19 44.1304L31.4854 41.3525L29.7807 44.1304L31.4854 45.1765ZM35.7879 52.188L34.0833 53.234L35.7611 55.9682L37.4775 53.2581L35.7879 52.188ZM27.5736 40.2059C27.5736 41.4242 26.586 42.4118 25.3677 42.4118V46.4118C28.7952 46.4118 31.5736 43.6333 31.5736 40.2059H27.5736ZM25.3677 38C26.586 38 27.5736 38.9876 27.5736 40.2059H31.5736C31.5736 36.7785 28.7952 34 25.3677 34V38ZM23.1619 40.2059C23.1619 38.9876 24.1495 38 25.3677 38V34C21.9403 34 19.1619 36.7785 19.1619 40.2059H23.1619ZM25.3677 42.4118C24.1495 42.4118 23.1619 41.4242 23.1619 40.2059H19.1619C19.1619 43.6333 21.9403 46.4118 25.3677 46.4118V42.4118ZM60.3221 60.9299L45.7927 37.9887L42.4134 40.1289L56.9428 63.0701L60.3221 60.9299ZM21.1619 64H58.6325V60H21.1619V64ZM29.7807 44.1304L19.4572 60.9539L22.8665 63.046L33.19 46.2225L29.7807 44.1304ZM37.4926 51.1419L33.19 44.1304L29.7807 46.2225L34.0833 53.234L37.4926 51.1419ZM42.4134 37.9887L34.0983 51.1179L37.4775 53.2581L45.7927 40.1289L42.4134 37.9887Z" fill="white" mask="url(#aqpath-4-inside-1_2964_22040)"/></g><defs><clipPath id="aqclip0_2964_22040"><rect width="80" height="100" fill="white"/></clipPath></defs></symbol><symbol viewBox="0 0 24 30" fill="none" id="key"><path d="M1.5 2.5a2 2 0 0 1 2-2h13.283a1 1 0 0 1 .71.296l4.665 4.71a1 1 0 0 1 .29.701l.048 21.289a2 2 0 0 1-2 2.004H3.5a2 2 0 0 1-2-2z" fill="#fff" stroke="#BBB"/><path d="M16.5.5V5A1.5 1.5 0 0 0 18 6.5h4.5" stroke="#BBB"/><path d="M6.5 15h5a.5.5 0 0 0 .5-.5v-5a.47.47 0 0 1 .5-.48 6 6 0 1 1-6.48 6.48.47.47 0 0 1 .48-.5" fill="#FAC299"/><path d="M5.5 13c-.276 0-.503-.225-.475-.5a5 5 0 0 1 4.476-4.475c.275-.028.499.199.499.475v4a.5.5 0 0 1-.5.5z" fill="#F36700"/></symbol><symbol viewBox="0 0 24 30" fill="none" id="md"><path d="M1.5 2.5a2 2 0 0 1 2-2h13.283a1 1 0 0 1 .71.296l4.665 4.71a1 1 0 0 1 .29.701l.048 21.289a2 2 0 0 1-2 2.004H3.5a2 2 0 0 1-2-2z" fill="#fff" stroke="#bbb"/><path d="M10.231 12.36A1.001 1.001 0 0 1 12 13v6a1 1 0 1 1-2 0v-3.237l-.731.878a1 1 0 0 1-1.538 0L7 15.763V19a1 1 0 1 1-2 0v-6a1 1 0 0 1 1.769-.64L8.5 14.437zM16 12a1 1 0 0 1 1 1v3.586l.293-.293a1 1 0 0 1 1.414 1.414l-2 2a1 1 0 0 1-1.414 0l-2-2a1 1 0 0 1 1.414-1.414l.293.293V13a1 1 0 0 1 1-1" fill="#287ca9"/><path d="M16.5.5V5A1.5 1.5 0 0 0 18 6.5h4.5" stroke="#bbb"/></symbol><symbol viewBox="0 0 24 30" fill="none" id="mht"><path d="M1.5 2.5a2 2 0 0 1 2-2h13.283a1 1 0 0 1 .71.296l4.665 4.71a1 1 0 0 1 .29.701l.048 21.289a2 2 0 0 1-2 2.004H3.5a2 2 0 0 1-2-2z" fill="#fff" stroke="#BBB"/><path d="M14.293 18.293a1 1 0 0 0 1.414 1.414l3-3a1 1 0 0 0 0-1.414l-3-3a1 1 0 0 0-1.414 1.414L16.586 16zm-4.586-4.586a1 1 0 0 0-1.414-1.414l-3 3a1 1 0 0 0 0 1.414l3 3a1 1 0 0 0 1.414-1.414L7.414 16z" fill="#A1A1A1"/><path d="M16.5.5V5A1.5 1.5 0 0 0 18 6.5h4.5" stroke="#BBB"/></symbol><symbol viewBox="0 0 24 30" fill="none" id="neutral"><path d="M1.5 2.5a2 2 0 0 1 2-2h13.283a1 1 0 0 1 .71.296l4.665 4.71a1 1 0 0 1 .29.701l.048 21.289a2 2 0 0 1-2 2.004H3.5a2 2 0 0 1-2-2z" fill="#fff" stroke="#BBB"/><path d="M16.5.5V5A1.5 1.5 0 0 0 18 6.5h4.5" stroke="#BBB"/></symbol><symbol viewBox="0 0 24 30" fill="none" id="neutral@1"><path d="M1 2a2 2 0 0 1 2-2h13.586a1 1 0 0 1 .707.293l5.414 5.414a1 1 0 0 1 .293.707V28a2 2 0 0 1-2 2H3a2 2 0 0 1-2-2z" fill="#fff"/><path d="M1 2a2 2 0 0 1 2-2h13.586a1 1 0 0 1 .707.293l5.414 5.414a1 1 0 0 1 .293.707V28a2 2 0 0 1-2 2H3a2 2 0 0 1-2-2zm21 5h-3.12c-.403 0-.735 0-1.006-.022-.281-.023-.54-.072-.782-.196a2 2 0 0 1-.874-.874c-.124-.243-.173-.501-.196-.782C16 4.856 16 4.523 16 4.12V1H3a1 1 0 0 0-1 1v26a1 1 0 0 0 1 1h18a1 1 0 0 0 1-1zm-.414-1L17 1.414V4.1c0 .428 0 .72.019.944.018.22.05.332.09.41a1 1 0 0 0 .437.437c.078.04.19.072.41.09.225.019.516.019.944.019z" fill="#BBB"/></symbol><symbol viewBox="0 0 24 30" fill="none" id="numbers"><path d="M1.5 2.5a2 2 0 0 1 2-2h13.283a1 1 0 0 1 .71.296l4.665 4.71a1 1 0 0 1 .29.701l.048 21.289a2 2 0 0 1-2 2.004H3.5a2 2 0 0 1-2-2z" fill="#fff" stroke="#BBB"/><path d="M16.5.5V5A1.5 1.5 0 0 0 18 6.5h4.5" stroke="#BBB"/><rect x="5" y="19" width="6" height="2" rx="1" fill="#B0D9AD"/><rect x="5" y="15" width="6" height="2" rx="1" fill="#B0D9AD"/><rect x="13" y="15" width="6" height="2" rx="1" fill="#B0D9AD"/><rect x="13" y="19" width="6" height="2" rx="1" fill="#B0D9AD"/><rect x="13" y="11" width="6" height="2" rx="1" fill="#3AA133"/><rect x="5" y="11" width="6" height="2" rx="1" fill="#3AA133"/></symbol><symbol viewBox="0 0 24 30" fill="none" id="odg"><path d="M1.5 2.5a2 2 0 0 1 2-2h13.283a1 1 0 0 1 .71.296l4.665 4.71a1 1 0 0 1 .29.701l.048 21.289a2 2 0 0 1-2 2.004H3.5a2 2 0 0 1-2-2z" fill="#fff" stroke="#BBB"/><path d="M16.5.5V5A1.5 1.5 0 0 0 18 6.5h4.5" stroke="#BBB"/><path d="M6.5 15h5a.5.5 0 0 0 .5-.5v-5a.47.47 0 0 1 .5-.48 6 6 0 1 1-6.48 6.48.47.47 0 0 1 .48-.5" fill="#FAC299"/><path d="M5.5 13c-.276 0-.503-.225-.475-.5a5 5 0 0 1 4.476-4.475c.275-.028.499.199.499.475v4a.5.5 0 0 1-.5.5z" fill="#F36700"/></symbol><symbol viewBox="0 0 24 30" fill="none" id="odp"><path d="M1.5 2.5a2 2 0 0 1 2-2h13.283a1 1 0 0 1 .71.296l4.665 4.71a1 1 0 0 1 .29.701l.048 21.289a2 2 0 0 1-2 2.004H3.5a2 2 0 0 1-2-2z" fill="#fff" stroke="#BBB"/><path d="M16.5.5V5A1.5 1.5 0 0 0 18 6.5h4.5" stroke="#BBB"/><path d="M6.5 15h5a.5.5 0 0 0 .5-.5v-5a.47.47 0 0 1 .5-.48 6 6 0 1 1-6.48 6.48.47.47 0 0 1 .48-.5" fill="#FAC299"/><path d="M5.5 13c-.276 0-.503-.225-.475-.5a5 5 0 0 1 4.476-4.475c.275-.028.499.199.499.475v4a.5.5 0 0 1-.5.5z" fill="#F36700"/></symbol><symbol viewBox="0 0 24 30" fill="none" id="ods"><path d="M1.5 2.5a2 2 0 0 1 2-2h13.283a1 1 0 0 1 .71.296l4.665 4.71a1 1 0 0 1 .29.701l.048 21.289a2 2 0 0 1-2 2.004H3.5a2 2 0 0 1-2-2z" fill="#fff" stroke="#BBB"/><path d="M16.5.5V5A1.5 1.5 0 0 0 18 6.5h4.5" stroke="#BBB"/><rect x="5" y="19" width="6" height="2" rx="1" fill="#B0D9AD"/><rect x="5" y="15" width="6" height="2" rx="1" fill="#B0D9AD"/><rect x="13" y="15" width="6" height="2" rx="1" fill="#B0D9AD"/><rect x="13" y="19" width="6" height="2" rx="1" fill="#B0D9AD"/><rect x="13" y="11" width="6" height="2" rx="1" fill="#3AA133"/><rect x="5" y="11" width="6" height="2" rx="1" fill="#3AA133"/></symbol><symbol viewBox="0 0 24 30" fill="none" id="odt"><path d="M1.5 2.5a2 2 0 0 1 2-2h13.283a1 1 0 0 1 .71.296l4.665 4.71a1 1 0 0 1 .29.701l.048 21.289a2 2 0 0 1-2 2.004H3.5a2 2 0 0 1-2-2z" fill="#fff" stroke="#BBB"/><path d="M16.5.5V5A1.5 1.5 0 0 0 18 6.5h4.5" stroke="#BBB"/><rect x="5" y="19" width="9" height="2" rx="1" fill="#A9CBDD"/><rect x="5" y="15" width="14" height="2" rx="1" fill="#A9CBDD"/><rect x="5" y="11" width="14" height="2" rx="1" fill="#287CA9"/></symbol><symbol viewBox="0 0 24 30" fill="none" id="oform"><path d="M1.5 2.5a2 2 0 0 1 2-2h13.283a1 1 0 0 1 .71.296l4.665 4.71a1 1 0 0 1 .29.701l.048 21.289a2 2 0 0 1-2 2.004H3.5a2 2 0 0 1-2-2z" fill="#fff" stroke="#BBB"/><path d="M16.5.5V5A1.5 1.5 0 0 0 18 6.5h4.5" stroke="#BBB"/><path d="M5 12a1 1 0 0 1 1-1h8a1 1 0 1 1 0 2H6a1 1 0 0 1-1-1" fill="#A9DDDA"/><path d="M7 17h10v2H7zm-1-2a1 1 0 0 0-1 1v4a1 1 0 0 0 1 1h12a1 1 0 0 0 1-1v-4a1 1 0 0 0-1-1z" fill="#28ABA3"/></symbol><symbol viewBox="0 0 24 30" fill="none" id="otp"><path d="M1.5 2.5a2 2 0 0 1 2-2h13.283a1 1 0 0 1 .71.296l4.665 4.71a1 1 0 0 1 .29.701l.048 21.289a2 2 0 0 1-2 2.004H3.5a2 2 0 0 1-2-2z" fill="#fff" stroke="#BBB"/><path d="M16.5.5V5A1.5 1.5 0 0 0 18 6.5h4.5" stroke="#BBB"/><path d="M6.5 15h5a.5.5 0 0 0 .5-.5v-5a.47.47 0 0 1 .5-.48 6 6 0 1 1-6.48 6.48.47.47 0 0 1 .48-.5" fill="#FAC299"/><path d="M5.5 13c-.276 0-.503-.225-.475-.5a5 5 0 0 1 4.476-4.475c.275-.028.499.199.499.475v4a.5.5 0 0 1-.5.5z" fill="#F36700"/></symbol><symbol viewBox="0 0 24 30" fill="none" id="ots"><path d="M1.5 2.5a2 2 0 0 1 2-2h13.283a1 1 0 0 1 .71.296l4.665 4.71a1 1 0 0 1 .29.701l.048 21.289a2 2 0 0 1-2 2.004H3.5a2 2 0 0 1-2-2z" fill="#fff" stroke="#BBB"/><path d="M16.5.5V5A1.5 1.5 0 0 0 18 6.5h4.5" stroke="#BBB"/><rect x="5" y="19" width="6" height="2" rx="1" fill="#B0D9AD"/><rect x="5" y="15" width="6" height="2" rx="1" fill="#B0D9AD"/><rect x="13" y="15" width="6" height="2" rx="1" fill="#B0D9AD"/><rect x="13" y="19" width="6" height="2" rx="1" fill="#B0D9AD"/><rect x="13" y="11" width="6" height="2" rx="1" fill="#3AA133"/><rect x="5" y="11" width="6" height="2" rx="1" fill="#3AA133"/></symbol><symbol viewBox="0 0 24 30" fill="none" id="ott"><path d="M1.5 2.5a2 2 0 0 1 2-2h13.283a1 1 0 0 1 .71.296l4.665 4.71a1 1 0 0 1 .29.701l.048 21.289a2 2 0 0 1-2 2.004H3.5a2 2 0 0 1-2-2z" fill="#fff" stroke="#BBB"/><path d="M16.5.5V5A1.5 1.5 0 0 0 18 6.5h4.5" stroke="#BBB"/><rect x="5" y="19" width="9" height="2" rx="1" fill="#A9CBDD"/><rect x="5" y="15" width="14" height="2" rx="1" fill="#A9CBDD"/><rect x="5" y="11" width="14" height="2" rx="1" fill="#287CA9"/></symbol><symbol viewBox="0 0 80 100" fill="none" id="oxps"><g clip-path="url(#bfclip0_2964_22048)"><path d="M75 19V92.6667C75 93.2855 74.7542 93.879 74.3166 94.3166C73.879 94.7542 73.2855 95 72.6667 95H7.33333C6.71449 95 6.121 94.7542 5.68342 94.3166C5.24583 93.879 5 93.2855 5 92.6667V7.33333C5 6.71449 5.24583 6.121 5.68342 5.68342C6.121 5.24583 6.71449 5 7.33333 5H61L75 19Z" fill="#51968F"/><path opacity="0.2" d="M75 19H63.3333C62.7145 19 62.121 18.7542 61.6834 18.3166C61.2458 17.879 61 17.2855 61 16.6667V5L75 19Z" fill="black"/><path d="M33.0039 82.7051C33.0039 83.3652 32.9219 83.9668 32.7578 84.5098C32.5938 85.0488 32.3438 85.5137 32.0078 85.9043C31.6758 86.2949 31.2539 86.5957 30.7422 86.8066C30.2305 87.0137 29.625 87.1172 28.9258 87.1172C28.2266 87.1172 27.6211 87.0137 27.1094 86.8066C26.5977 86.5957 26.1738 86.2949 25.8379 85.9043C25.5059 85.5137 25.2578 85.0469 25.0938 84.5039C24.9297 83.9609 24.8477 83.3574 24.8477 82.6934C24.8477 81.8066 24.9922 81.0352 25.2812 80.3789C25.5742 79.7188 26.0234 79.207 26.6289 78.8438C27.2344 78.4805 28.0039 78.2988 28.9375 78.2988C29.8672 78.2988 30.6309 78.4805 31.2285 78.8438C31.8301 79.207 32.2754 79.7188 32.5645 80.3789C32.8574 81.0391 33.0039 81.8145 33.0039 82.7051ZM26.752 82.7051C26.752 83.3027 26.8262 83.8184 26.9746 84.252C27.127 84.6816 27.3633 85.0137 27.6836 85.248C28.0039 85.4785 28.418 85.5938 28.9258 85.5938C29.4414 85.5938 29.8594 85.4785 30.1797 85.248C30.5 85.0137 30.7324 84.6816 30.877 84.252C31.0254 83.8184 31.0996 83.3027 31.0996 82.7051C31.0996 81.8066 30.9316 81.0996 30.5957 80.584C30.2598 80.0684 29.707 79.8105 28.9375 79.8105C28.4258 79.8105 28.0078 79.9277 27.6836 80.1621C27.3633 80.3926 27.127 80.7246 26.9746 81.1582C26.8262 81.5879 26.752 82.1035 26.752 82.7051ZM41.7051 87H39.6309L37.6387 83.7598L35.6465 87H33.7012L36.543 82.582L33.8828 78.4336H35.8867L37.7324 81.5156L39.543 78.4336H41.5L38.8105 82.6816L41.7051 87ZM45.5195 78.4336C46.625 78.4336 47.4316 78.6719 47.9395 79.1484C48.4473 79.6211 48.7012 80.2734 48.7012 81.1055C48.7012 81.4805 48.6445 81.8398 48.5312 82.1836C48.418 82.5234 48.2324 82.8262 47.9746 83.0918C47.7207 83.3574 47.3809 83.5684 46.9551 83.7246C46.5293 83.877 46.0039 83.9531 45.3789 83.9531H44.5996V87H42.7832V78.4336H45.5195ZM45.4258 79.9219H44.5996V82.4648H45.1973C45.5371 82.4648 45.832 82.4199 46.082 82.3301C46.332 82.2402 46.5254 82.0996 46.6621 81.9082C46.7988 81.7168 46.8672 81.4707 46.8672 81.1699C46.8672 80.748 46.75 80.4355 46.5156 80.2324C46.2812 80.0254 45.918 79.9219 45.4258 79.9219ZM55.375 84.6211C55.375 85.1289 55.252 85.5703 55.0059 85.9453C54.7598 86.3203 54.4004 86.6094 53.9277 86.8125C53.459 87.0156 52.8887 87.1172 52.2168 87.1172C51.9199 87.1172 51.6289 87.0977 51.3438 87.0586C51.0625 87.0195 50.791 86.9629 50.5293 86.8887C50.2715 86.8105 50.0254 86.7148 49.791 86.6016V84.9141C50.1973 85.0938 50.6191 85.2559 51.0566 85.4004C51.4941 85.5449 51.9277 85.6172 52.3574 85.6172C52.6543 85.6172 52.8926 85.5781 53.0723 85.5C53.2559 85.4219 53.3887 85.3145 53.4707 85.1777C53.5527 85.041 53.5938 84.8848 53.5938 84.709C53.5938 84.4941 53.5215 84.3105 53.377 84.1582C53.2324 84.0059 53.0332 83.8633 52.7793 83.7305C52.5293 83.5977 52.2461 83.4551 51.9297 83.3027C51.7305 83.209 51.5137 83.0957 51.2793 82.9629C51.0449 82.8262 50.8223 82.6602 50.6113 82.4648C50.4004 82.2695 50.2266 82.0332 50.0898 81.7559C49.957 81.4746 49.8906 81.1387 49.8906 80.748C49.8906 80.2363 50.0078 79.7988 50.2422 79.4355C50.4766 79.0723 50.8105 78.7949 51.2441 78.6035C51.6816 78.4082 52.1973 78.3105 52.791 78.3105C53.2363 78.3105 53.6602 78.3633 54.0625 78.4688C54.4688 78.5703 54.8926 78.7188 55.334 78.9141L54.748 80.3262C54.3535 80.166 54 80.043 53.6875 79.957C53.375 79.8672 53.0566 79.8223 52.7324 79.8223C52.5059 79.8223 52.3125 79.8594 52.1523 79.9336C51.9922 80.0039 51.8711 80.1055 51.7891 80.2383C51.707 80.3672 51.666 80.5176 51.666 80.6895C51.666 80.8926 51.7246 81.0645 51.8418 81.2051C51.9629 81.3418 52.1426 81.4746 52.3809 81.6035C52.623 81.7324 52.9238 81.8828 53.2832 82.0547C53.7207 82.2617 54.0938 82.4785 54.4023 82.7051C54.7148 82.9277 54.9551 83.1914 55.123 83.4961C55.291 83.7969 55.375 84.1719 55.375 84.6211Z" fill="white"/><path fill-rule="evenodd" clip-rule="evenodd" d="M30 45.7895V42L16 48.1579V50.8421L30 57V53.2105L19.5 49.5L30 45.7895ZM36 51.5C37.1046 51.5 38 50.6046 38 49.5C38 48.3954 37.1046 47.5 36 47.5C34.8954 47.5 34 48.3954 34 49.5C34 50.6046 34.8954 51.5 36 51.5ZM46 49.5C46 50.6046 45.1046 51.5 44 51.5C42.8954 51.5 42 50.6046 42 49.5C42 48.3954 42.8954 47.5 44 47.5C45.1046 47.5 46 48.3954 46 49.5ZM50 45.7895V42L64 48.1579V50.8421L50 57V53.2105L60.5 49.5L50 45.7895Z" fill="white"/></g><defs><clipPath id="bfclip0_2964_22048"><rect width="80" height="100" fill="white"/></clipPath></defs></symbol><symbol viewBox="0 0 24 30" fill="none" id="pages"><path d="M1.5 2.5a2 2 0 0 1 2-2h13.283a1 1 0 0 1 .71.296l4.665 4.71a1 1 0 0 1 .29.701l.048 21.289a2 2 0 0 1-2 2.004H3.5a2 2 0 0 1-2-2z" fill="#fff" stroke="#BBB"/><path d="M16.5.5V5A1.5 1.5 0 0 0 18 6.5h4.5" stroke="#BBB"/><rect x="5" y="19" width="9" height="2" rx="1" fill="#A9CBDD"/><rect x="5" y="15" width="14" height="2" rx="1" fill="#A9CBDD"/><rect x="5" y="11" width="14" height="2" rx="1" fill="#287CA9"/></symbol><symbol viewBox="0 0 24 30" fill="none" id="pdf"><path d="M1.5 2.5a2 2 0 0 1 2-2h13.283a1 1 0 0 1 .71.296l4.665 4.71a1 1 0 0 1 .29.701l.048 21.289a2 2 0 0 1-2 2.004H3.5a2 2 0 0 1-2-2z" fill="#fff" stroke="#BBB"/><path d="M16.5.5V5A1.5 1.5 0 0 0 18 6.5h4.5" stroke="#BBB"/><rect x="5" y="11" width="14" height="2" rx="1" fill="#F5B8B0"/><rect x="5" y="15" width="5" height="2" rx="1" fill="#F5B8B0"/><rect x="5" y="19" width="5" height="2" rx="1" fill="#F5B8B0"/><rect x="12" y="15" width="12" height="12" rx="2" fill="#E54D39"/><path d="M16.892 16.5c0 1.31-.374 2.856-1.006 4.282-.635 1.431-1.493 2.656-2.386 3.378l.97 1.34c2.408-1.622 5.074-2.734 7.654-2.361l.376-1.611c-2.198-.74-3.962-2.96-3.962-5.028zm1.074 3.43a8 8 0 0 0 1.403 1.634 12.3 12.3 0 0 0-2.365.692q.204-.39.382-.794c.22-.496.415-1.01.58-1.531" fill="#fff"/></symbol><symbol viewBox="0 0 80 100" fill="none" id="pdfa"><g clip-path="url(#biclip0_2964_22042)"><path d="M75 19V92.6667C75 93.2855 74.7542 93.879 74.3166 94.3166C73.879 94.7542 73.2855 95 72.6667 95H7.33333C6.71449 95 6.121 94.7542 5.68342 94.3166C5.24583 93.879 5 93.2855 5 92.6667V7.33333C5 6.71449 5.24583 6.121 5.68342 5.68342C6.121 5.24583 6.71449 5 7.33333 5H61L75 19Z" fill="#BA4C3F"/><path fill-rule="evenodd" clip-rule="evenodd" d="M12 10C10.8954 10 10 10.8954 10 12V21C10 22.1046 10.8954 23 12 23H21C22.1046 23 23 22.1046 23 21V12C23 10.8954 22.1046 10 21 10H12ZM16.8076 12.8906H17.1787L19.835 20H18.2725L17.7794 18.501H15.2242L14.7324 20H13.1748L15.8164 12.8906H16.1777H16.8076ZM15.6007 17.3535H17.402L16.5002 14.6118L15.6007 17.3535Z" fill="white"/><path opacity="0.2" d="M75 19H63.3333C62.7145 19 62.121 18.7542 61.6834 18.3166C61.2458 17.879 61 17.2855 61 16.6667V5L75 19Z" fill="black"/><path d="M25.6914 78.4336C26.7969 78.4336 27.6035 78.6719 28.1113 79.1484C28.6191 79.6211 28.873 80.2734 28.873 81.1055C28.873 81.4805 28.8164 81.8398 28.7031 82.1836C28.5898 82.5234 28.4043 82.8262 28.1465 83.0918C27.8926 83.3574 27.5527 83.5684 27.127 83.7246C26.7012 83.877 26.1758 83.9531 25.5508 83.9531H24.7715V87H22.9551V78.4336H25.6914ZM25.5977 79.9219H24.7715V82.4648H25.3691C25.709 82.4648 26.0039 82.4199 26.2539 82.3301C26.5039 82.2402 26.6973 82.0996 26.834 81.9082C26.9707 81.7168 27.0391 81.4707 27.0391 81.1699C27.0391 80.748 26.9219 80.4355 26.6875 80.2324C26.4531 80.0254 26.0898 79.9219 25.5977 79.9219ZM37.5977 82.6348C37.5977 83.5996 37.4121 84.4062 37.041 85.0547C36.6738 85.6992 36.1406 86.1855 35.4414 86.5137C34.7422 86.8379 33.9004 87 32.916 87H30.4902V78.4336H33.1797C34.0781 78.4336 34.8574 78.5938 35.5176 78.9141C36.1777 79.2305 36.6895 79.7012 37.0527 80.3262C37.416 80.9473 37.5977 81.7168 37.5977 82.6348ZM35.7109 82.6816C35.7109 82.0488 35.6172 81.5293 35.4297 81.123C35.2461 80.7129 34.9727 80.4102 34.6094 80.2148C34.25 80.0195 33.8047 79.9219 33.2734 79.9219H32.3066V85.5H33.0859C33.9727 85.5 34.6309 85.2637 35.0605 84.791C35.4941 84.3184 35.7109 83.6152 35.7109 82.6816ZM41.1602 87H39.373V78.4336H44.2832V79.9219H41.1602V82.1309H44.0664V83.6133H41.1602V87ZM49.7793 78.4336L46.5859 87H44.9629L48.1562 78.4336H49.7793ZM56.1602 87L55.5391 84.9609H52.416L51.7949 87H49.8379L52.8613 78.3984H55.082L58.1172 87H56.1602ZM55.1055 83.4375L54.4844 81.4453C54.4453 81.3125 54.3926 81.1426 54.3262 80.9355C54.2637 80.7246 54.1992 80.5117 54.1328 80.2969C54.0703 80.0781 54.0195 79.8887 53.9805 79.7285C53.9414 79.8887 53.8867 80.0879 53.8164 80.3262C53.75 80.5605 53.6855 80.7832 53.623 80.9941C53.5605 81.2051 53.5156 81.3555 53.4883 81.4453L52.873 83.4375H55.1055Z" fill="white"/><path d="M34.0286 52.2618C35.0487 50.2485 36.2367 47.9722 37.1793 45.7024L37.5538 44.8048C36.3271 40.1561 35.5846 36.4244 36.2625 34.0135C36.4006 33.6893 36.6389 33.4171 36.9429 33.2362C37.247 33.0552 37.6011 32.9749 37.954 33.0068H38.5222C39.5939 33.0068 40.0975 34.3469 40.1556 34.8727C40.1654 35.6698 40.0611 36.4643 39.8457 37.2323C39.8963 36.4145 39.7732 35.5953 39.4842 34.8278C39.0258 33.866 38.5997 33.289 38.2187 33.2248C38.0833 33.3329 37.9737 33.4695 37.8977 33.6247C37.8218 33.7799 37.7815 33.95 37.7797 34.1225C37.6744 34.7992 37.6247 35.4832 37.6312 36.1679C37.6729 38.2114 37.9877 40.2403 38.5674 42.2015C38.6836 41.8553 38.7869 41.5603 38.8773 41.2141C39.0064 40.7268 39.8393 37.4888 39.8393 37.4888C39.8393 37.4888 39.6262 41.7976 39.3357 43.1056C39.2711 43.3813 39.2001 43.657 39.1291 43.9327C40.1126 46.7301 41.7422 49.2599 43.8873 51.3193C44.7436 52.0383 45.6768 52.6618 46.67 53.1787C48.5184 52.9009 50.3852 52.7616 52.2547 52.7619C54.3723 52.7619 55.9283 53.1018 56.5545 53.7173C56.8282 54.0066 56.9865 54.385 57 54.7817C56.9883 54.9976 56.9581 55.2121 56.9096 55.4229C56.9096 55.3075 56.9096 54.7817 55.231 54.2174C53.8945 53.7943 51.3572 53.8071 48.3809 54.1213C51.8608 55.814 55.2504 56.686 56.3221 56.1474C56.5481 55.9979 56.745 55.8089 56.9032 55.5896C56.8265 55.9537 56.7163 56.31 56.5739 56.654C56.3628 56.9242 56.0714 57.1217 55.741 57.2182C54.043 57.6735 49.6334 56.6283 45.7855 54.4483C41.4426 55.103 37.1608 56.1087 32.9827 57.4555C29.2381 63.9251 26.4684 66.8938 24.1958 65.7653L23.3629 65.3485C23.2097 65.2267 23.0975 65.0615 23.041 64.8748C22.9845 64.6882 22.9864 64.4889 23.0465 64.3034C23.3112 63.021 24.9382 61.0974 28.2115 59.1354C28.5666 58.9238 30.1484 58.1031 30.1484 58.1031C30.1484 58.1031 28.9928 59.2187 28.7216 59.4367C26.1391 61.5591 24.2022 64.2264 24.2345 65.2652V65.3549C26.449 65.0408 29.7675 60.5588 34.0415 52.2618H34.0286ZM35.3974 52.9479C34.6807 54.2816 33.9834 55.5127 33.3378 56.6604C36.898 55.2439 40.5984 54.2037 44.378 53.557C43.8873 53.2172 43.416 52.8645 42.9641 52.4862C41.0049 50.82 39.4097 48.7732 38.2769 46.4719C37.4539 48.6941 36.4789 50.8578 35.3586 52.9479" fill="white"/></g><defs><clipPath id="biclip0_2964_22042"><rect width="80" height="100" fill="white"/></clipPath></defs></symbol><symbol viewBox="0 0 80 100" fill="none" id="png"><g clip-path="url(#bjclip0_2964_22057)"><path d="M75 19V92.6667C75 93.2855 74.7542 93.879 74.3166 94.3166C73.879 94.7542 73.2855 95 72.6667 95H7.33333C6.71449 95 6.121 94.7542 5.68342 94.3166C5.24583 93.879 5 93.2855 5 92.6667V7.33333C5 6.71449 5.24583 6.121 5.68342 5.68342C6.121 5.24583 6.71449 5 7.33333 5H61L75 19Z" fill="#D871D6"/><path opacity="0.2" d="M75 19H63.3333C62.7145 19 62.121 18.7542 61.6834 18.3166C61.2458 17.879 61 17.2855 61 16.6667V5L75 19Z" fill="black"/><path d="M30.8184 78.4336C31.9238 78.4336 32.7305 78.6719 33.2383 79.1484C33.7461 79.6211 34 80.2734 34 81.1055C34 81.4805 33.9434 81.8398 33.8301 82.1836C33.7168 82.5234 33.5312 82.8262 33.2734 83.0918C33.0195 83.3574 32.6797 83.5684 32.2539 83.7246C31.8281 83.877 31.3027 83.9531 30.6777 83.9531H29.8984V87H28.082V78.4336H30.8184ZM30.7246 79.9219H29.8984V82.4648H30.4961C30.8359 82.4648 31.1309 82.4199 31.3809 82.3301C31.6309 82.2402 31.8242 82.0996 31.9609 81.9082C32.0977 81.7168 32.166 81.4707 32.166 81.1699C32.166 80.748 32.0488 80.4355 31.8145 80.2324C31.5801 80.0254 31.2168 79.9219 30.7246 79.9219ZM43.2168 87H40.9082L37.1816 80.5195H37.1289C37.1445 80.7891 37.1582 81.0605 37.1699 81.334C37.1816 81.6074 37.1934 81.8809 37.2051 82.1543C37.2168 82.4238 37.2285 82.6953 37.2402 82.9688V87H35.6172V78.4336H37.9082L41.6289 84.8496H41.6699C41.6621 84.584 41.6523 84.3203 41.6406 84.0586C41.6289 83.7969 41.6172 83.5352 41.6055 83.2734C41.5977 83.0117 41.5898 82.75 41.582 82.4883V78.4336H43.2168V87ZM48.6309 82.1895H52.0293V86.6309C51.5801 86.7793 51.1133 86.8984 50.6289 86.9883C50.1445 87.0742 49.5957 87.1172 48.9824 87.1172C48.1309 87.1172 47.4082 86.9492 46.8145 86.6133C46.2207 86.2773 45.7695 85.7812 45.4609 85.125C45.1523 84.4688 44.998 83.6621 44.998 82.7051C44.998 81.8066 45.1699 81.0293 45.5137 80.373C45.8613 79.7168 46.3672 79.209 47.0312 78.8496C47.6992 78.4902 48.5137 78.3105 49.4746 78.3105C49.9277 78.3105 50.375 78.3594 50.8164 78.457C51.2578 78.5547 51.6582 78.6816 52.0176 78.8379L51.4141 80.291C51.1523 80.1582 50.8535 80.0469 50.5176 79.957C50.1816 79.8672 49.8301 79.8223 49.4629 79.8223C48.9355 79.8223 48.4766 79.9434 48.0859 80.1855C47.6992 80.4277 47.3984 80.7676 47.1836 81.2051C46.9727 81.6387 46.8672 82.1504 46.8672 82.7402C46.8672 83.2988 46.9434 83.7949 47.0957 84.2285C47.248 84.6582 47.4883 84.9961 47.8164 85.2422C48.1445 85.4844 48.5723 85.6055 49.0996 85.6055C49.3574 85.6055 49.5742 85.5938 49.75 85.5703C49.9297 85.543 50.0977 85.5156 50.2539 85.4883V83.7012H48.6309V82.1895Z" fill="white"/><mask id="bjpath-4-inside-1_2964_22057" fill="white"><path fill-rule="evenodd" clip-rule="evenodd" d="M25.3677 44.4118C27.6906 44.4118 29.5736 42.5287 29.5736 40.2059C29.5736 37.883 27.6906 36 25.3677 36C23.0449 36 21.1619 37.883 21.1619 40.2059C21.1619 42.5287 23.0449 44.4118 25.3677 44.4118ZM44.103 39.0588L58.6325 62H21.1619L31.4854 45.1765L35.7879 52.188L44.103 39.0588Z"/></mask><path fill-rule="evenodd" clip-rule="evenodd" d="M25.3677 44.4118C27.6906 44.4118 29.5736 42.5287 29.5736 40.2059C29.5736 37.883 27.6906 36 25.3677 36C23.0449 36 21.1619 37.883 21.1619 40.2059C21.1619 42.5287 23.0449 44.4118 25.3677 44.4118ZM44.103 39.0588L58.6325 62H21.1619L31.4854 45.1765L35.7879 52.188L44.103 39.0588Z" fill="white"/><path d="M58.6325 62V64H62.2665L60.3221 60.9299L58.6325 62ZM44.103 39.0588L45.7927 37.9887L44.103 35.3208L42.4134 37.9887L44.103 39.0588ZM21.1619 62L19.4572 60.9539L17.5881 64H21.1619V62ZM31.4854 45.1765L33.19 44.1304L31.4854 41.3525L29.7807 44.1304L31.4854 45.1765ZM35.7879 52.188L34.0833 53.234L35.7611 55.9682L37.4775 53.2581L35.7879 52.188ZM27.5736 40.2059C27.5736 41.4242 26.586 42.4118 25.3677 42.4118V46.4118C28.7952 46.4118 31.5736 43.6333 31.5736 40.2059H27.5736ZM25.3677 38C26.586 38 27.5736 38.9876 27.5736 40.2059H31.5736C31.5736 36.7785 28.7952 34 25.3677 34V38ZM23.1619 40.2059C23.1619 38.9876 24.1495 38 25.3677 38V34C21.9403 34 19.1619 36.7785 19.1619 40.2059H23.1619ZM25.3677 42.4118C24.1495 42.4118 23.1619 41.4242 23.1619 40.2059H19.1619C19.1619 43.6333 21.9403 46.4118 25.3677 46.4118V42.4118ZM60.3221 60.9299L45.7927 37.9887L42.4134 40.1289L56.9428 63.0701L60.3221 60.9299ZM21.1619 64H58.6325V60H21.1619V64ZM29.7807 44.1304L19.4572 60.9539L22.8665 63.046L33.19 46.2225L29.7807 44.1304ZM37.4926 51.1419L33.19 44.1304L29.7807 46.2225L34.0833 53.234L37.4926 51.1419ZM42.4134 37.9887L34.0983 51.1179L37.4775 53.2581L45.7927 40.1289L42.4134 37.9887Z" fill="white" mask="url(#bjpath-4-inside-1_2964_22057)"/></g><defs><clipPath id="bjclip0_2964_22057"><rect width="80" height="100" fill="white"/></clipPath></defs></symbol><symbol viewBox="0 0 24 30" fill="none" id="potm"><path d="M1.5 2.5a2 2 0 0 1 2-2h13.283a1 1 0 0 1 .71.296l4.665 4.71a1 1 0 0 1 .29.701l.048 21.289a2 2 0 0 1-2 2.004H3.5a2 2 0 0 1-2-2z" fill="#fff" stroke="#BBB"/><path d="M16.5.5V5A1.5 1.5 0 0 0 18 6.5h4.5" stroke="#BBB"/><path d="M6.5 15h5a.5.5 0 0 0 .5-.5v-5a.47.47 0 0 1 .5-.48 6 6 0 1 1-6.48 6.48.47.47 0 0 1 .48-.5" fill="#FAC299"/><path d="M5.5 13c-.276 0-.503-.225-.475-.5a5 5 0 0 1 4.476-4.475c.275-.028.499.199.499.475v4a.5.5 0 0 1-.5.5z" fill="#FAC299"/><rect x="12" y="15" width="12" height="12" rx="2" fill="#F36700"/><path d="M17.845 17.43q1.37 0 2.02.6.66.59.66 1.65 0 .48-.14.92-.14.43-.47.77a2.2 2.2 0 0 1-.85.54q-.52.2-1.29.2h-.6v2.46h-1.7v-7.14zm-.06 1.39h-.61v1.9h.45q.35 0 .61-.1a.85.85 0 0 0 .42-.32q.15-.22.15-.57 0-.44-.25-.67-.25-.24-.77-.24" fill="#fff"/></symbol><symbol viewBox="0 0 24 30" fill="none" id="potx"><path d="M1.5 2.5a2 2 0 0 1 2-2h13.283a1 1 0 0 1 .71.296l4.665 4.71a1 1 0 0 1 .29.701l.048 21.289a2 2 0 0 1-2 2.004H3.5a2 2 0 0 1-2-2z" fill="#fff" stroke="#BBB"/><path d="M16.5.5V5A1.5 1.5 0 0 0 18 6.5h4.5" stroke="#BBB"/><path d="M6.5 15h5a.5.5 0 0 0 .5-.5v-5a.47.47 0 0 1 .5-.48 6 6 0 1 1-6.48 6.48.47.47 0 0 1 .48-.5" fill="#FAC299"/><path d="M5.5 13c-.276 0-.503-.225-.475-.5a5 5 0 0 1 4.476-4.475c.275-.028.499.199.499.475v4a.5.5 0 0 1-.5.5z" fill="#FAC299"/><rect x="12" y="15" width="12" height="12" rx="2" fill="#F36700"/><path d="M17.845 17.43q1.37 0 2.02.6.66.59.66 1.65 0 .48-.14.92-.14.43-.47.77a2.2 2.2 0 0 1-.85.54q-.52.2-1.29.2h-.6v2.46h-1.7v-7.14zm-.06 1.39h-.61v1.9h.45q.35 0 .61-.1a.85.85 0 0 0 .42-.32q.15-.22.15-.57 0-.44-.25-.67-.25-.24-.77-.24" fill="#fff"/></symbol><symbol viewBox="0 0 24 30" fill="none" id="pps"><path d="M1.5 2.5a2 2 0 0 1 2-2h13.283a1 1 0 0 1 .71.296l4.665 4.71a1 1 0 0 1 .29.701l.048 21.289a2 2 0 0 1-2 2.004H3.5a2 2 0 0 1-2-2z" fill="#fff" stroke="#BBB"/><path d="M16.5.5V5A1.5 1.5 0 0 0 18 6.5h4.5" stroke="#BBB"/><path d="M6.5 15h5a.5.5 0 0 0 .5-.5v-5a.47.47 0 0 1 .5-.48 6 6 0 1 1-6.48 6.48.47.47 0 0 1 .48-.5" fill="#FAC299"/><path d="M5.5 13c-.276 0-.503-.225-.475-.5a5 5 0 0 1 4.476-4.475c.275-.028.499.199.499.475v4a.5.5 0 0 1-.5.5z" fill="#F36700"/></symbol><symbol viewBox="0 0 24 30" fill="none" id="ppsm"><path d="M1.5 2.5a2 2 0 0 1 2-2h13.283a1 1 0 0 1 .71.296l4.665 4.71a1 1 0 0 1 .29.701l.048 21.289a2 2 0 0 1-2 2.004H3.5a2 2 0 0 1-2-2z" fill="#fff" stroke="#BBB"/><path d="M16.5.5V5A1.5 1.5 0 0 0 18 6.5h4.5" stroke="#BBB"/><path d="M6.5 15h5a.5.5 0 0 0 .5-.5v-5a.47.47 0 0 1 .5-.48 6 6 0 1 1-6.48 6.48.47.47 0 0 1 .48-.5" fill="#FAC299"/><path d="M5.5 13c-.276 0-.503-.225-.475-.5a5 5 0 0 1 4.476-4.475c.275-.028.499.199.499.475v4a.5.5 0 0 1-.5.5z" fill="#FAC299"/><rect x="12" y="15" width="12" height="12" rx="2" fill="#F36700"/><path d="M17.845 17.43q1.37 0 2.02.6.66.59.66 1.65 0 .48-.14.92-.14.43-.47.77a2.2 2.2 0 0 1-.85.54q-.52.2-1.29.2h-.6v2.46h-1.7v-7.14zm-.06 1.39h-.61v1.9h.45q.35 0 .61-.1a.85.85 0 0 0 .42-.32q.15-.22.15-.57 0-.44-.25-.67-.25-.24-.77-.24" fill="#fff"/></symbol><symbol viewBox="0 0 24 30" fill="none" id="ppsx"><path d="M1.5 2.5a2 2 0 0 1 2-2h13.283a1 1 0 0 1 .71.296l4.665 4.71a1 1 0 0 1 .29.701l.048 21.289a2 2 0 0 1-2 2.004H3.5a2 2 0 0 1-2-2z" fill="#fff" stroke="#BBB"/><path d="M16.5.5V5A1.5 1.5 0 0 0 18 6.5h4.5" stroke="#BBB"/><path d="M6.5 15h5a.5.5 0 0 0 .5-.5v-5a.47.47 0 0 1 .5-.48 6 6 0 1 1-6.48 6.48.47.47 0 0 1 .48-.5" fill="#FAC299"/><path d="M5.5 13c-.276 0-.503-.225-.475-.5a5 5 0 0 1 4.476-4.475c.275-.028.499.199.499.475v4a.5.5 0 0 1-.5.5z" fill="#FAC299"/><rect x="12" y="15" width="12" height="12" rx="2" fill="#F36700"/><path d="M17.845 17.43q1.37 0 2.02.6.66.59.66 1.65 0 .48-.14.92-.14.43-.47.77a2.2 2.2 0 0 1-.85.54q-.52.2-1.29.2h-.6v2.46h-1.7v-7.14zm-.06 1.39h-.61v1.9h.45q.35 0 .61-.1a.85.85 0 0 0 .42-.32q.15-.22.15-.57 0-.44-.25-.67-.25-.24-.77-.24" fill="#fff"/></symbol><symbol viewBox="0 0 24 30" fill="none" id="ppt"><path d="M1.5 2.5a2 2 0 0 1 2-2h13.283a1 1 0 0 1 .71.296l4.665 4.71a1 1 0 0 1 .29.701l.048 21.289a2 2 0 0 1-2 2.004H3.5a2 2 0 0 1-2-2z" fill="#fff" stroke="#BBB"/><path d="M16.5.5V5A1.5 1.5 0 0 0 18 6.5h4.5" stroke="#BBB"/><path d="M6.5 15h5a.5.5 0 0 0 .5-.5v-5a.47.47 0 0 1 .5-.48 6 6 0 1 1-6.48 6.48.47.47 0 0 1 .48-.5" fill="#FAC299"/><path d="M5.5 13c-.276 0-.503-.225-.475-.5a5 5 0 0 1 4.476-4.475c.275-.028.499.199.499.475v4a.5.5 0 0 1-.5.5z" fill="#F36700"/></symbol><symbol viewBox="0 0 24 30" fill="none" id="pptm"><path d="M1.5 2.5a2 2 0 0 1 2-2h13.283a1 1 0 0 1 .71.296l4.665 4.71a1 1 0 0 1 .29.701l.048 21.289a2 2 0 0 1-2 2.004H3.5a2 2 0 0 1-2-2z" fill="#fff" stroke="#BBB"/><path d="M16.5.5V5A1.5 1.5 0 0 0 18 6.5h4.5" stroke="#BBB"/><path d="M6.5 15h5a.5.5 0 0 0 .5-.5v-5a.47.47 0 0 1 .5-.48 6 6 0 1 1-6.48 6.48.47.47 0 0 1 .48-.5" fill="#FAC299"/><path d="M5.5 13c-.276 0-.503-.225-.475-.5a5 5 0 0 1 4.476-4.475c.275-.028.499.199.499.475v4a.5.5 0 0 1-.5.5z" fill="#FAC299"/><rect x="12" y="15" width="12" height="12" rx="2" fill="#F36700"/><path d="M17.845 17.43q1.37 0 2.02.6.66.59.66 1.65 0 .48-.14.92-.14.43-.47.77a2.2 2.2 0 0 1-.85.54q-.52.2-1.29.2h-.6v2.46h-1.7v-7.14zm-.06 1.39h-.61v1.9h.45q.35 0 .61-.1a.85.85 0 0 0 .42-.32q.15-.22.15-.57 0-.44-.25-.67-.25-.24-.77-.24" fill="#fff"/></symbol><symbol viewBox="0 0 24 30" fill="none" id="pptx"><path d="M1.5 2.5a2 2 0 0 1 2-2h13.283a1 1 0 0 1 .71.296l4.665 4.71a1 1 0 0 1 .29.701l.048 21.289a2 2 0 0 1-2 2.004H3.5a2 2 0 0 1-2-2z" fill="#fff" stroke="#BBB"/><path d="M16.5.5V5A1.5 1.5 0 0 0 18 6.5h4.5" stroke="#BBB"/><path d="M6.5 15h5a.5.5 0 0 0 .5-.5v-5a.47.47 0 0 1 .5-.48 6 6 0 1 1-6.48 6.48.47.47 0 0 1 .48-.5" fill="#FAC299"/><path d="M5.5 13c-.276 0-.503-.225-.475-.5a5 5 0 0 1 4.476-4.475c.275-.028.499.199.499.475v4a.5.5 0 0 1-.5.5z" fill="#FAC299"/><rect x="12" y="15" width="12" height="12" rx="2" fill="#F36700"/><path d="M17.845 17.43q1.37 0 2.02.6.66.59.66 1.65 0 .48-.14.92-.14.43-.47.77a2.2 2.2 0 0 1-.85.54q-.52.2-1.29.2h-.6v2.46h-1.7v-7.14zm-.06 1.39h-.61v1.9h.45q.35 0 .61-.1a.85.85 0 0 0 .42-.32q.15-.22.15-.57 0-.44-.25-.67-.25-.24-.77-.24" fill="#fff"/></symbol><symbol viewBox="0 0 24 30" fill="none" id="rtf"><path d="M1.5 2.5a2 2 0 0 1 2-2h13.283a1 1 0 0 1 .71.296l4.665 4.71a1 1 0 0 1 .29.701l.048 21.289a2 2 0 0 1-2 2.004H3.5a2 2 0 0 1-2-2z" fill="#fff" stroke="#BBB"/><path d="M16.5.5V5A1.5 1.5 0 0 0 18 6.5h4.5" stroke="#BBB"/><rect x="5" y="19" width="9" height="2" rx="1" fill="#A9CBDD"/><rect x="5" y="15" width="14" height="2" rx="1" fill="#A9CBDD"/><rect x="5" y="11" width="14" height="2" rx="1" fill="#287CA9"/></symbol><symbol viewBox="0 0 80 100" fill="none" id="svg"><g clip-path="url(#btclip0_2964_22054)"><path d="M75 19V92.6667C75 93.2855 74.7542 93.879 74.3166 94.3166C73.879 94.7542 73.2855 95 72.6667 95H7.33333C6.71449 95 6.121 94.7542 5.68342 94.3166C5.24583 93.879 5 93.2855 5 92.6667V7.33333C5 6.71449 5.24583 6.121 5.68342 5.68342C6.121 5.24583 6.71449 5 7.33333 5H61L75 19Z" fill="#507C8B"/><path opacity="0.2" d="M75 19H63.3333C62.7145 19 62.121 18.7542 61.6834 18.3166C61.2458 17.879 61 17.2855 61 16.6667V5L75 19Z" fill="black"/><path d="M34.5801 84.6211C34.5801 85.1289 34.457 85.5703 34.2109 85.9453C33.9648 86.3203 33.6055 86.6094 33.1328 86.8125C32.6641 87.0156 32.0938 87.1172 31.4219 87.1172C31.125 87.1172 30.834 87.0977 30.5488 87.0586C30.2676 87.0195 29.9961 86.9629 29.7344 86.8887C29.4766 86.8105 29.2305 86.7148 28.9961 86.6016V84.9141C29.4023 85.0938 29.8242 85.2559 30.2617 85.4004C30.6992 85.5449 31.1328 85.6172 31.5625 85.6172C31.8594 85.6172 32.0977 85.5781 32.2773 85.5C32.4609 85.4219 32.5938 85.3145 32.6758 85.1777C32.7578 85.041 32.7988 84.8848 32.7988 84.709C32.7988 84.4941 32.7266 84.3105 32.582 84.1582C32.4375 84.0059 32.2383 83.8633 31.9844 83.7305C31.7344 83.5977 31.4512 83.4551 31.1348 83.3027C30.9355 83.209 30.7188 83.0957 30.4844 82.9629C30.25 82.8262 30.0273 82.6602 29.8164 82.4648C29.6055 82.2695 29.4316 82.0332 29.2949 81.7559C29.1621 81.4746 29.0957 81.1387 29.0957 80.748C29.0957 80.2363 29.2129 79.7988 29.4473 79.4355C29.6816 79.0723 30.0156 78.7949 30.4492 78.6035C30.8867 78.4082 31.4023 78.3105 31.9961 78.3105C32.4414 78.3105 32.8652 78.3633 33.2676 78.4688C33.6738 78.5703 34.0977 78.7188 34.5391 78.9141L33.9531 80.3262C33.5586 80.166 33.2051 80.043 32.8926 79.957C32.5801 79.8672 32.2617 79.8223 31.9375 79.8223C31.7109 79.8223 31.5176 79.8594 31.3574 79.9336C31.1973 80.0039 31.0762 80.1055 30.9941 80.2383C30.9121 80.3672 30.8711 80.5176 30.8711 80.6895C30.8711 80.8926 30.9297 81.0645 31.0469 81.2051C31.168 81.3418 31.3477 81.4746 31.5859 81.6035C31.8281 81.7324 32.1289 81.8828 32.4883 82.0547C32.9258 82.2617 33.2988 82.4785 33.6074 82.7051C33.9199 82.9277 34.1602 83.1914 34.3281 83.4961C34.4961 83.7969 34.5801 84.1719 34.5801 84.6211ZM42.8535 78.4336L39.9414 87H37.9609L35.0547 78.4336H36.8887L38.5 83.5312C38.5273 83.6172 38.5723 83.7793 38.6348 84.0176C38.6973 84.252 38.7598 84.502 38.8223 84.7676C38.8887 85.0293 38.9336 85.2461 38.957 85.418C38.9805 85.2461 39.0215 85.0293 39.0801 84.7676C39.1426 84.5059 39.2031 84.2578 39.2617 84.0234C39.3242 83.7852 39.3691 83.6211 39.3965 83.5312L41.0195 78.4336H42.8535ZM47.1895 82.1895H50.5879V86.6309C50.1387 86.7793 49.6719 86.8984 49.1875 86.9883C48.7031 87.0742 48.1543 87.1172 47.541 87.1172C46.6895 87.1172 45.9668 86.9492 45.373 86.6133C44.7793 86.2773 44.3281 85.7812 44.0195 85.125C43.7109 84.4688 43.5566 83.6621 43.5566 82.7051C43.5566 81.8066 43.7285 81.0293 44.0723 80.373C44.4199 79.7168 44.9258 79.209 45.5898 78.8496C46.2578 78.4902 47.0723 78.3105 48.0332 78.3105C48.4863 78.3105 48.9336 78.3594 49.375 78.457C49.8164 78.5547 50.2168 78.6816 50.5762 78.8379L49.9727 80.291C49.7109 80.1582 49.4121 80.0469 49.0762 79.957C48.7402 79.8672 48.3887 79.8223 48.0215 79.8223C47.4941 79.8223 47.0352 79.9434 46.6445 80.1855C46.2578 80.4277 45.957 80.7676 45.7422 81.2051C45.5312 81.6387 45.4258 82.1504 45.4258 82.7402C45.4258 83.2988 45.502 83.7949 45.6543 84.2285C45.8066 84.6582 46.0469 84.9961 46.375 85.2422C46.7031 85.4844 47.1309 85.6055 47.6582 85.6055C47.916 85.6055 48.1328 85.5938 48.3086 85.5703C48.4883 85.543 48.6562 85.5156 48.8125 85.4883V83.7012H47.1895V82.1895Z" fill="white"/><path d="M40.92 46.0952C43.5307 45.6519 45.52 43.3542 45.52 40.5862C45.52 37.501 43.0486 35 40 35C36.9514 35 34.48 37.501 34.48 40.5862C34.48 43.3542 36.4693 45.6519 39.08 46.0952V57.8902L30.6995 49.4092C31.3421 48.496 31.72 47.3789 31.72 46.1724C31.72 43.0872 29.2486 40.5862 26.2 40.5862C23.1514 40.5862 20.68 43.0872 20.68 46.1724C20.68 49.2576 23.1514 51.7586 26.2 51.7586C27.3922 51.7586 28.4961 51.3762 29.3984 50.7259L38.6989 60.1379H27.9637C27.5257 57.4959 25.2552 55.4828 22.52 55.4828C19.4714 55.4828 17 57.9838 17 61.069C17 61.3862 17.0261 61.6972 17.0763 62H62.9237C62.9739 61.6972 63 61.3862 63 61.069C63 57.9838 60.5286 55.4828 57.48 55.4828C54.7448 55.4828 52.4743 57.4959 52.0363 60.1379H41.4318L50.6785 50.7803C51.5664 51.3975 52.6415 51.7586 53.8 51.7586C56.8486 51.7586 59.32 49.2576 59.32 46.1724C59.32 43.0872 56.8486 40.5862 53.8 40.5862C50.7514 40.5862 48.28 43.0872 48.28 46.1724C48.28 47.4129 48.6795 48.5589 49.3555 49.4859L40.92 58.0225V46.0952Z" fill="white"/></g><defs><clipPath id="btclip0_2964_22054"><rect width="80" height="100" fill="white"/></clipPath></defs></symbol><symbol viewBox="0 0 24 30" fill="none" id="txt"><path d="M1.5 2.5a2 2 0 0 1 2-2h13.283a1 1 0 0 1 .71.296l4.665 4.71a1 1 0 0 1 .29.701l.048 21.289a2 2 0 0 1-2 2.004H3.5a2 2 0 0 1-2-2z" fill="#fff" stroke="#BBB"/><path d="M16.5.5V5A1.5 1.5 0 0 0 18 6.5h4.5" stroke="#BBB"/><rect x="5" y="19" width="9" height="2" rx="1" fill="#A1A1A1"/><rect x="5" y="15" width="14" height="2" rx="1" fill="#A1A1A1"/><rect x="5" y="11" width="14" height="2" rx="1" fill="#A1A1A1"/></symbol><symbol viewBox="0 0 24 30" fill="none" id="vsdx"><path d="M1.5 2.5a2 2 0 0 1 2-2h13.283a1 1 0 0 1 .71.296l4.665 4.71a1 1 0 0 1 .29.701l.048 21.289a2 2 0 0 1-2 2.004H3.5a2 2 0 0 1-2-2z" fill="#fff" stroke="#BBB"/><path d="M4.46 11.291a1 1 0 0 0 0 1.415l2.536 2.535v1.757h-1a1 1 0 0 0-1 1v4a1 1 0 0 0 1 1h4a1 1 0 0 0 1-1v-4a1 1 0 0 0-1-1h-1v-1.757l2.243-2.243h6.757a1 1 0 1 0 0-2H11.24L8.703 8.463a1 1 0 0 0-1.414 0zm2.536 9.707v-2h2v2zm-.414-9 1.414-1.414 1.415 1.414-1.415 1.415z" fill="#BDB9E4"/><path d="M16.5.5V5A1.5 1.5 0 0 0 18 6.5h4.5" stroke="#BBB"/><rect x="12" y="15" width="12" height="12" rx="2" fill="#5951BB"/><path d="m21.35 17.43-2.39 7.14h-1.93l-2.38-7.14h1.83l1.16 3.96q.051.15.12.46.07.3.14.63.08.32.1.53.03-.21.09-.53.07-.32.14-.62.07-.31.12-.46l1.18-3.97z" fill="#fff"/></symbol><symbol viewBox="0 0 24 30" fill="none" id="xls"><path d="M1.5 2.5a2 2 0 0 1 2-2h13.283a1 1 0 0 1 .71.296l4.665 4.71a1 1 0 0 1 .29.701l.048 21.289a2 2 0 0 1-2 2.004H3.5a2 2 0 0 1-2-2z" fill="#fff" stroke="#BBB"/><path d="M16.5.5V5A1.5 1.5 0 0 0 18 6.5h4.5" stroke="#BBB"/><rect x="5" y="19" width="6" height="2" rx="1" fill="#B0D9AD"/><rect x="5" y="15" width="6" height="2" rx="1" fill="#B0D9AD"/><rect x="13" y="15" width="6" height="2" rx="1" fill="#B0D9AD"/><rect x="13" y="19" width="6" height="2" rx="1" fill="#B0D9AD"/><rect x="13" y="11" width="6" height="2" rx="1" fill="#3AA133"/><rect x="5" y="11" width="6" height="2" rx="1" fill="#3AA133"/></symbol><symbol viewBox="0 0 24 30" fill="none" id="xlsb"><path d="M1.5 2.5a2 2 0 0 1 2-2h13.283a1 1 0 0 1 .71.296l4.665 4.71a1 1 0 0 1 .29.701l.048 21.289a2 2 0 0 1-2 2.004H3.5a2 2 0 0 1-2-2z" fill="#fff" stroke="#BBB"/><path d="M16.5.5V5A1.5 1.5 0 0 0 18 6.5h4.5" stroke="#BBB"/><rect x="5" y="19" width="6" height="2" rx="1" fill="#B0D9AD"/><rect x="5" y="15" width="6" height="2" rx="1" fill="#B0D9AD"/><rect x="13" y="11" width="6" height="2" rx="1" fill="#B0D9AD"/><rect x="5" y="11" width="6" height="2" rx="1" fill="#B0D9AD"/><rect x="12" y="15" width="12" height="12" rx="2" fill="#3AA133"/><path d="M21.45 24.57h-1.96l-1.53-2.48-1.53 2.48h-1.88l2.37-3.67-2.23-3.47h1.89l1.43 2.4 1.38-2.4h1.89l-2.24 3.59z" fill="#fff"/></symbol><symbol viewBox="0 0 24 30" fill="none" id="xlsm"><path d="M1.5 2.5a2 2 0 0 1 2-2h13.283a1 1 0 0 1 .71.296l4.665 4.71a1 1 0 0 1 .29.701l.048 21.289a2 2 0 0 1-2 2.004H3.5a2 2 0 0 1-2-2z" fill="#fff" stroke="#BBB"/><path d="M16.5.5V5A1.5 1.5 0 0 0 18 6.5h4.5" stroke="#BBB"/><rect x="5" y="19" width="6" height="2" rx="1" fill="#B0D9AD"/><rect x="5" y="15" width="6" height="2" rx="1" fill="#B0D9AD"/><rect x="13" y="11" width="6" height="2" rx="1" fill="#B0D9AD"/><rect x="5" y="11" width="6" height="2" rx="1" fill="#B0D9AD"/><rect x="12" y="15" width="12" height="12" rx="2" fill="#3AA133"/><path d="M21.45 24.57h-1.96l-1.53-2.48-1.53 2.48h-1.88l2.37-3.67-2.23-3.47h1.89l1.43 2.4 1.38-2.4h1.89l-2.24 3.59z" fill="#fff"/></symbol><symbol viewBox="0 0 24 30" fill="none" id="xlsx"><path d="M1.5 2.5a2 2 0 0 1 2-2h13.283a1 1 0 0 1 .71.296l4.665 4.71a1 1 0 0 1 .29.701l.048 21.289a2 2 0 0 1-2 2.004H3.5a2 2 0 0 1-2-2z" fill="#fff" stroke="#BBB"/><path d="M16.5.5V5A1.5 1.5 0 0 0 18 6.5h4.5" stroke="#BBB"/><rect x="5" y="19" width="6" height="2" rx="1" fill="#B0D9AD"/><rect x="5" y="15" width="6" height="2" rx="1" fill="#B0D9AD"/><rect x="13" y="11" width="6" height="2" rx="1" fill="#B0D9AD"/><rect x="5" y="11" width="6" height="2" rx="1" fill="#B0D9AD"/><rect x="12" y="15" width="12" height="12" rx="2" fill="#3AA133"/><path d="M21.45 24.57h-1.96l-1.53-2.48-1.53 2.48h-1.88l2.37-3.67-2.23-3.47h1.89l1.43 2.4 1.38-2.4h1.89l-2.24 3.59z" fill="#fff"/></symbol><symbol viewBox="0 0 24 30" fill="none" id="xltm"><path d="M1.5 2.5a2 2 0 0 1 2-2h13.283a1 1 0 0 1 .71.296l4.665 4.71a1 1 0 0 1 .29.701l.048 21.289a2 2 0 0 1-2 2.004H3.5a2 2 0 0 1-2-2z" fill="#fff" stroke="#BBB"/><path d="M16.5.5V5A1.5 1.5 0 0 0 18 6.5h4.5" stroke="#BBB"/><rect x="5" y="19" width="6" height="2" rx="1" fill="#B0D9AD"/><rect x="5" y="15" width="6" height="2" rx="1" fill="#B0D9AD"/><rect x="13" y="11" width="6" height="2" rx="1" fill="#B0D9AD"/><rect x="5" y="11" width="6" height="2" rx="1" fill="#B0D9AD"/><rect x="12" y="15" width="12" height="12" rx="2" fill="#3AA133"/><path d="M21.45 24.57h-1.96l-1.53-2.48-1.53 2.48h-1.88l2.37-3.67-2.23-3.47h1.89l1.43 2.4 1.38-2.4h1.89l-2.24 3.59z" fill="#fff"/></symbol><symbol viewBox="0 0 24 30" fill="none" id="xltx"><path d="M1.5 2.5a2 2 0 0 1 2-2h13.283a1 1 0 0 1 .71.296l4.665 4.71a1 1 0 0 1 .29.701l.048 21.289a2 2 0 0 1-2 2.004H3.5a2 2 0 0 1-2-2z" fill="#fff" stroke="#BBB"/><path d="M16.5.5V5A1.5 1.5 0 0 0 18 6.5h4.5" stroke="#BBB"/><rect x="5" y="19" width="6" height="2" rx="1" fill="#B0D9AD"/><rect x="5" y="15" width="6" height="2" rx="1" fill="#B0D9AD"/><rect x="13" y="11" width="6" height="2" rx="1" fill="#B0D9AD"/><rect x="5" y="11" width="6" height="2" rx="1" fill="#B0D9AD"/><rect x="12" y="15" width="12" height="12" rx="2" fill="#3AA133"/><path d="M21.45 24.57h-1.96l-1.53-2.48-1.53 2.48h-1.88l2.37-3.67-2.23-3.47h1.89l1.43 2.4 1.38-2.4h1.89l-2.24 3.59z" fill="#fff"/></symbol><symbol viewBox="0 0 24 30" fill="none" id="xml"><path d="M1.5 2.5a2 2 0 0 1 2-2h13.283a1 1 0 0 1 .71.296l4.665 4.71a1 1 0 0 1 .29.701l.048 21.289a2 2 0 0 1-2 2.004H3.5a2 2 0 0 1-2-2z" fill="#fff" stroke="#BBB"/><path d="M14.293 18.293a1 1 0 0 0 1.414 1.414l3-3a1 1 0 0 0 0-1.414l-3-3a1 1 0 0 0-1.414 1.414L16.586 16zm-4.586-4.586a1 1 0 0 0-1.414-1.414l-3 3a1 1 0 0 0 0 1.414l3 3a1 1 0 0 0 1.414-1.414L7.414 16z" fill="#A1A1A1"/><path d="M16.5.5V5A1.5 1.5 0 0 0 18 6.5h4.5" stroke="#BBB"/></symbol><symbol viewBox="0 0 24 30" fill="none" id="xps"><path d="M1.5 2.5a2 2 0 0 1 2-2h13.283a1 1 0 0 1 .71.296l4.665 4.71a1 1 0 0 1 .29.701l.048 21.289a2 2 0 0 1-2 2.004H3.5a2 2 0 0 1-2-2z" fill="#fff" stroke="#BBB"/><path d="M14.293 18.293a1 1 0 0 0 1.414 1.414l3-3a1 1 0 0 0 0-1.414l-3-3a1 1 0 0 0-1.414 1.414L16.586 16zm-4.586-4.586a1 1 0 0 0-1.414-1.414l-3 3a1 1 0 0 0 0 1.414l3 3a1 1 0 0 0 1.414-1.414L7.414 16z" fill="#A1A1A1"/><path d="M16.5.5V5A1.5 1.5 0 0 0 18 6.5h4.5" stroke="#BBB"/></symbol></svg>